<?xml version="1.0" encoding="UTF-8"?>
<svg version="1.1" xmlns="http://www.w3.org/2000/svg" width="889" height="280">
<path d="M0 0 C2.27689724 1.68544516 4.34655473 3.46824536 6.42578125 5.390625 C7.12316406 5.98617187 7.82054687 6.58171875 8.5390625 7.1953125 C17.93665918 15.72571099 22.86691658 28.19557867 23.5546875 40.7421875 C23.87478712 54.52781096 18.81671821 67.19956336 9.42578125 77.390625 C6.70703125 79.62109375 6.70703125 79.62109375 3.92578125 81.578125 C3.00796875 82.23167969 2.09015625 82.88523437 1.14453125 83.55859375 C-10.67080356 91.5203639 -22.53099272 92.91894323 -36.57421875 91.390625 C-50.37428569 88.128791 -62.34939075 79.4274515 -69.88671875 67.453125 C-76.67143725 55.30331659 -78.32650158 41.89068604 -74.57421875 28.390625 C-70.75815336 15.75944857 -61.77259378 4.89595322 -50.18359375 -1.47265625 C-34.11515091 -9.02050104 -15.4680059 -9.67043768 0 0 Z M-59.671875 13.55859375 C-68.51764569 24.16976241 -70.39897831 35.91464291 -69.57421875 49.390625 C-67.37191935 61.2279843 -61.5538118 70.80943176 -52.01171875 78.078125 C-41.78742993 84.85362386 -30.66909526 86.67263011 -18.57421875 85.390625 C-11.49744418 83.84102682 -4.1374033 81.20114341 1.42578125 76.390625 C1.42578125 75.730625 1.42578125 75.070625 1.42578125 74.390625 C2.74578125 73.730625 4.06578125 73.070625 5.42578125 72.390625 C5.42578125 71.730625 5.42578125 71.070625 5.42578125 70.390625 C6.08578125 70.390625 6.74578125 70.390625 7.42578125 70.390625 C16.0905407 58.12917294 18.2020132 46.25908391 15.99609375 31.51953125 C12.95907754 19.80264771 5.38270578 10.96028302 -4.57421875 4.390625 C-23.3823467 -5.24020364 -45.00890569 -1.59587174 -59.671875 13.55859375 Z " fill="#2A2E35" transform="translate(264.57421875,95.609375)"/>
<path d="M0 0 C1.98535156 0.13525391 1.98535156 0.13525391 4 1 C5.19433594 2.59521484 5.19433594 2.59521484 6.234375 4.8359375 C6.65783203 5.74698242 7.08128906 6.65802734 7.51757812 7.59667969 C10.84606971 15.23817717 14.06112227 22.92434914 17.25 30.625 C18.8442389 34.46442336 20.44100043 38.30279147 22.0390625 42.140625 C22.44526825 43.11667694 22.851474 44.09272888 23.26998901 45.09835815 C26.12137445 51.93450433 29.02621838 58.74613205 31.9609375 65.546875 C32.75230081 67.38589541 33.54364236 69.22492519 34.33496094 71.06396484 C35.47203271 73.7053969 36.61206038 76.34533529 37.76184082 78.98126221 C38.82045524 81.40866986 39.86821498 83.84050807 40.9140625 86.2734375 C41.2287851 86.98610779 41.54350769 87.69877808 41.86776733 88.43304443 C43.40039644 92.02596393 44.69648236 95.07770461 44 99 C43.01 99.66 42.02 100.32 41 101 C36.43196824 97.33530935 34.90787991 92.59700699 32.8125 87.3125 C31.93667705 85.15996124 31.06033286 83.00763452 30.18359375 80.85546875 C29.68972168 79.6339209 29.19584961 78.41237305 28.68701172 77.15380859 C25.66339098 69.6909701 22.57192906 62.25585232 19.48934937 54.81723022 C18.40389866 52.19481817 17.32235688 49.57082291 16.24145508 46.9465332 C11.67343741 35.88147286 6.91824305 24.91384695 2 14 C-2.01353602 21.81719702 -5.68828617 29.70027413 -9.0625 37.8125 C-9.52366211 38.91126465 -9.98482422 40.0100293 -10.45996094 41.14208984 C-11.71184015 44.12666663 -12.9601736 47.11269285 -14.206604 50.09954834 C-15.58743235 53.40709908 -16.97146545 56.71330804 -18.35546875 60.01953125 C-18.63629807 60.69047821 -18.91712738 61.36142517 -19.20646667 62.05270386 C-21.66001908 67.91317797 -24.1195656 73.77111783 -26.58300781 79.62744141 C-27.45992626 81.71457983 -28.33470712 83.80261953 -29.20605469 85.89208984 C-30.1705064 88.20262673 -31.14537548 90.50836648 -32.125 92.8125 C-32.62257813 93.99457031 -33.12015625 95.17664063 -33.6328125 96.39453125 C-35 99 -35 99 -38 101 C-38.99 100.34 -39.98 99.68 -41 99 C-40.45595459 93.85760242 -39.2587263 89.72390694 -37.18359375 84.99609375 C-36.89545303 84.33222153 -36.60731232 83.6683493 -36.31044006 82.98435974 C-35.68657464 81.54937923 -35.05887771 80.11605955 -34.42773438 78.68426514 C-33.07021818 75.60416599 -31.73163196 72.51595699 -30.39187622 69.42810059 C-29.6846955 67.7985468 -28.97657056 66.16940248 -28.26754761 64.54064941 C-24.62123534 56.15726085 -21.06420668 47.73698359 -17.5227356 39.30886841 C-16.53128451 36.94944972 -15.53812787 34.59075527 -14.54467773 32.23217773 C-13.91508014 30.73556551 -13.28560221 29.23890293 -12.65625 27.7421875 C-12.35336563 27.0226741 -12.05048126 26.30316071 -11.73841858 25.56184387 C-10.14933142 21.77669083 -8.58357824 17.98350387 -7.046875 14.17675781 C-6.72956421 13.39398468 -6.41225342 12.61121155 -6.08532715 11.80471802 C-5.48006232 10.3083556 -4.87901477 8.81027821 -4.28283691 7.31027222 C-2.2222636 2.2222636 -2.2222636 2.2222636 0 0 Z " fill="#C3C3C1" transform="translate(646,87)"/>
<path d="M0 0 C5.01293211 -0.12530403 10.02491717 -0.21512475 15.0390625 -0.2746582 C16.73811761 -0.29952164 18.43706903 -0.33342554 20.13574219 -0.37719727 C36.33050448 -0.78350033 49.49359588 1.72048995 62 13 C71.8041672 23.10635043 76.93080985 35.18834605 77.375 49.1875 C77.14192345 62.9938577 72.091298 74.56595341 62.8125 84.75 C53.3989705 93.55006353 41.60668607 98.5454865 28.80859375 98.29296875 C27.97787857 98.28872391 27.14716339 98.28447906 26.29127502 98.28010559 C23.67300118 98.26349314 21.05553585 98.2258763 18.4375 98.1875 C16.64779768 98.17243053 14.85808313 98.15874612 13.06835938 98.14648438 C8.71193446 98.1136472 4.35610365 98.06198936 0 98 C-0.495 95.525 -0.495 95.525 -1 93 C2.01927445 91.49036277 5.15209587 91.84335875 8.46484375 91.82421875 C10.00326839 91.80098759 11.54167984 91.77686901 13.08007812 91.75195312 C15.49560954 91.71710787 17.91066606 91.68765083 20.32641602 91.67407227 C31.92944996 91.59615128 42.27616906 90.97645878 52 83.8125 C54.45725474 82.02828011 56.08310021 80.97229993 59 80 C60.06335646 78.17651011 60.06335646 78.17651011 61 76 C61.97662186 74.49834188 62.95599955 72.99847397 63.9375 71.5 C70.11562905 61.24339944 71.37154766 50.44638231 68.75 38.9375 C65.36977586 26.63161488 58.96122797 17.88979088 47.8828125 11.2890625 C37.87852902 6.81560241 28.28514237 6.49709595 17.5 6.375 C15.16244978 6.33843067 12.8250637 6.29788064 10.4876709 6.25234985 C9.04318998 6.22523837 7.59858786 6.20383745 6.15393066 6.18881226 C1.22146396 6.11073198 1.22146396 6.11073198 -1 5 C-0.67 3.35 -0.34 1.7 0 0 Z " fill="#2B2F36" transform="translate(326,89)"/>
<path d="M0 0 C1.32 0.33 2.64 0.66 4 1 C4.64815017 4.72140154 3.74277524 6.73260161 1.68359375 9.72265625 C0.61380786 11.17834973 -0.46917919 12.62439883 -1.5625 14.0625 C-2.1395166 14.84109375 -2.7165332 15.6196875 -3.31103516 16.421875 C-5.19503403 18.9573878 -7.09626774 21.47927786 -9 24 C-10.3195841 25.75868428 -11.63859219 27.5178009 -12.95703125 29.27734375 C-14.86956735 31.82935684 -16.78391898 34.3797265 -18.70922852 36.92211914 C-19.89730014 38.49412189 -21.07067503 40.07734122 -22.22900391 41.67138672 C-24 44 -24 44 -25.97021484 46.08251953 C-33.2092174 54.40010218 -31.96866678 64.4599743 -31.875 74.875 C-31.88174207 77.69126007 -31.89806603 80.50731499 -31.91702271 83.32351685 C-31.92529395 85.06639713 -31.92461232 86.80934928 -31.91378784 88.55221558 C-31.91113922 89.34048737 -31.9084906 90.12875916 -31.90576172 90.94091797 C-31.89740799 91.97489212 -31.89740799 91.97489212 -31.8888855 93.02975464 C-32.01068302 95.18942774 -32.23524314 96.97054381 -33 99 C-33.99 99.33 -34.98 99.66 -36 100 C-37.48686218 98.74914551 -37.48686218 98.74914551 -39 97 C-39.16230645 93.9220213 -39.15484592 91.03559674 -39.01953125 87.96875 C-38.97643858 86.11599342 -38.93845851 84.26311237 -38.9050293 82.41015625 C-38.88693207 81.44352051 -38.86883484 80.47688477 -38.85018921 79.48095703 C-38.27430987 58.61462722 -38.27430987 58.61462722 -48.07397461 40.92553711 C-49.36627016 39.60243014 -50.67985843 38.29977665 -52.01416016 37.01904297 C-55.5865091 33.38696456 -58.42235639 29.20039377 -61.375 25.0625 C-62.52856209 23.48986794 -63.68346139 21.91821568 -64.83984375 20.34765625 C-74.17118837 7.5467862 -74.17118837 7.5467862 -76 4 C-75.67 3.01 -75.34 2.02 -75 1 C-72.68188477 0.7890625 -72.68188477 0.7890625 -70 1 C-68.42944336 2.3984375 -68.42944336 2.3984375 -67.08984375 4.375 C-66.32655762 5.47013916 -66.32655762 5.47013916 -65.54785156 6.58740234 C-65.01643555 7.38355957 -64.48501953 8.1797168 -63.9375 9 C-62.78661522 10.65986671 -61.63423996 12.31870085 -60.48046875 13.9765625 C-59.90087402 14.81864258 -59.3212793 15.66072266 -58.72412109 16.52832031 C-56.15481966 20.21164059 -53.46131573 23.79558949 -50.75 27.375 C-49.77075939 28.67442345 -48.79159122 29.97390148 -47.8125 31.2734375 C-47.34457031 31.8931543 -46.87664063 32.51287109 -46.39453125 33.15136719 C-44.17319193 36.09604178 -41.96185313 39.0481976 -39.75 42 C-39.02296875 42.969375 -38.2959375 43.93875 -37.546875 44.9375 C-37.03640625 45.618125 -36.5259375 46.29875 -36 47 C-31.73090106 43.00506338 -28.42585537 38.64480235 -25.0625 33.875 C-23.9201159 32.2741362 -22.77685528 30.67389761 -21.6328125 29.07421875 C-21.04145508 28.24583496 -20.45009766 27.41745117 -19.84082031 26.56396484 C-16.74096513 22.24636814 -13.59109771 17.96592396 -10.4375 13.6875 C-9.85427979 12.8939209 -9.27105957 12.1003418 -8.67016602 11.28271484 C-5.85198638 7.4596571 -3.00448383 3.68030904 0 0 Z " fill="#C2C1C0" transform="translate(783,88)"/>
<path d="M0 0 C3.94668939 -0.12509012 7.89258657 -0.21502442 11.84082031 -0.2746582 C13.83179353 -0.31169623 15.82221653 -0.37528228 17.8125 -0.43945312 C28.12582958 -0.56967193 35.06745405 1.40497007 42.875 8.1875 C48.88293062 14.77775959 50.72732448 22.33538976 50.37890625 31.11328125 C49.32058359 39.17617243 45.01298421 45.6416552 39 51 C33.34759536 54.5950956 28.29040278 56.12801087 21.58203125 56.09765625 C20.32841797 56.09443359 19.07480469 56.09121094 17.78320312 56.08789062 C16.47287109 56.07951172 15.16253906 56.07113281 13.8125 56.0625 C12.47721519 56.05748317 11.14192859 56.05292059 9.80664062 56.04882812 C6.53771527 56.03702695 3.26888009 56.02056297 0 56 C-0.38218767 54.34385343 -0.71395102 52.67542976 -1 51 C0.70714084 49.29285916 2.95187945 49.83040643 5.28515625 49.7890625 C6.37376953 49.76070312 7.46238281 49.73234375 8.58398438 49.703125 C10.87550075 49.65165916 13.16718719 49.6072132 15.45898438 49.5703125 C24.95147928 49.30276126 32.11185699 47.88814301 39 41 C42.0812349 36.32502291 43.16460745 31.55092903 43 26 C41.86968834 20.65275637 39.99642291 14.0604773 35.32421875 10.84765625 C30.51143093 8.04766996 27.48427203 6.86955252 21.96875 6.71875 C20.76605469 6.68136719 19.56335938 6.64398438 18.32421875 6.60546875 C17.06222656 6.57066406 15.80023438 6.53585938 14.5 6.5 C12.01029575 6.43133604 9.52069865 6.35862836 7.03125 6.28125 C5.92330078 6.25095703 4.81535156 6.22066406 3.67382812 6.18945312 C1 6 1 6 -1 5 C-0.67 3.35 -0.34 1.7 0 0 Z " fill="#2E323A" transform="translate(111,89)"/>
<path d="M0 0 C3.94668939 -0.12509012 7.89258657 -0.21502442 11.84082031 -0.2746582 C13.83179353 -0.31169623 15.82221653 -0.37528228 17.8125 -0.43945312 C27.52997478 -0.56214851 34.05863507 0.96442924 41.62109375 7.140625 C48.15284508 14.72588461 50.63706088 21.31550887 50.2734375 31.37109375 C49.40180194 39.75124709 45.18907699 45.405603 39 51 C33.37838654 54.64104502 28.22442677 56.12771234 21.58203125 56.09765625 C20.32841797 56.09443359 19.07480469 56.09121094 17.78320312 56.08789062 C16.47287109 56.07951172 15.16253906 56.07113281 13.8125 56.0625 C12.47721519 56.05748317 11.14192859 56.05292059 9.80664062 56.04882812 C6.53771527 56.03702695 3.26888009 56.02056297 0 56 C-0.38218767 54.34385343 -0.71395102 52.67542976 -1 51 C0.7327795 49.2672205 3.10949716 49.84995134 5.46875 49.82421875 C7.16257812 49.78844727 7.16257812 49.78844727 8.890625 49.75195312 C11.26545197 49.7095455 13.64050188 49.67799582 16.015625 49.65820312 C24.69078696 49.44721219 31.45971011 48.38636424 37.875 42.25 C41.67662157 36.43575524 43.86666291 31.05711228 43 24 C40.76842231 17.05331462 37.66339337 12.05876652 31.1640625 8.40625 C25.61976567 6.10900569 19.59592274 6.46594878 13.6875 6.375 C11.33715333 6.32415421 8.98688186 6.26965821 6.63671875 6.2109375 C5.08537231 6.18459229 5.08537231 6.18459229 3.50268555 6.15771484 C1 6 1 6 -1 5 C-0.67 3.35 -0.34 1.7 0 0 Z " fill="#C2C2C1" transform="translate(452,89)"/>
<path d="M0 0 C1.65 0.33 3.3 0.66 5 1 C5 32.68 5 64.36 5 97 C2.525 97.495 2.525 97.495 0 98 C-1.89751904 96.10248096 -1.12671315 93.31942229 -1.13552856 90.79440308 C-1.13350433 89.9018985 -1.1314801 89.00939392 -1.12939453 88.08984375 C-1.13114685 87.15496124 -1.13289917 86.22007874 -1.13470459 85.25686646 C-1.13912474 82.15039238 -1.13618454 79.04397471 -1.1328125 75.9375 C-1.13348549 73.78898101 -1.13445548 71.64046209 -1.13571167 69.49194336 C-1.13718886 64.98257728 -1.13503339 60.47323097 -1.13037109 55.96386719 C-1.1246738 50.16951423 -1.12795269 44.37520758 -1.13394356 38.58085632 C-1.13754859 34.14237109 -1.13641085 29.70389693 -1.13381577 25.26541138 C-1.13314634 23.12826533 -1.13397547 20.99111829 -1.13629532 18.85397339 C-1.1388209 15.87267374 -1.13498259 12.8914502 -1.12939453 9.91015625 C-1.13141876 9.01765167 -1.13344299 8.12514709 -1.13552856 7.20559692 C-1.11426232 1.11426232 -1.11426232 1.11426232 0 0 Z " fill="#2F333C" transform="translate(99,89)"/>
<path d="M0 0 C1.65 0.33 3.3 0.66 5 1 C5 32.68 5 64.36 5 97 C2.525 97.495 2.525 97.495 0 98 C-1.89751904 96.10248096 -1.12671315 93.31942229 -1.13552856 90.79440308 C-1.13350433 89.9018985 -1.1314801 89.00939392 -1.12939453 88.08984375 C-1.13114685 87.15496124 -1.13289917 86.22007874 -1.13470459 85.25686646 C-1.13912474 82.15039238 -1.13618454 79.04397471 -1.1328125 75.9375 C-1.13348549 73.78898101 -1.13445548 71.64046209 -1.13571167 69.49194336 C-1.13718886 64.98257728 -1.13503339 60.47323097 -1.13037109 55.96386719 C-1.1246738 50.16951423 -1.12795269 44.37520758 -1.13394356 38.58085632 C-1.13754859 34.14237109 -1.13641085 29.70389693 -1.13381577 25.26541138 C-1.13314634 23.12826533 -1.13397547 20.99111829 -1.13629532 18.85397339 C-1.1388209 15.87267374 -1.13498259 12.8914502 -1.12939453 9.91015625 C-1.13141876 9.01765167 -1.13344299 8.12514709 -1.13552856 7.20559692 C-1.11426232 1.11426232 -1.11426232 1.11426232 0 0 Z " fill="#C1C0C0" transform="translate(537,89)"/>
<path d="M0 0 C1.65 0.33 3.3 0.66 5 1 C5 32.68 5 64.36 5 97 C2.525 97.495 2.525 97.495 0 98 C-1.89751904 96.10248096 -1.12671315 93.31942229 -1.13552856 90.79440308 C-1.13350433 89.9018985 -1.1314801 89.00939392 -1.12939453 88.08984375 C-1.13114685 87.15496124 -1.13289917 86.22007874 -1.13470459 85.25686646 C-1.13912474 82.15039238 -1.13618454 79.04397471 -1.1328125 75.9375 C-1.13348549 73.78898101 -1.13445548 71.64046209 -1.13571167 69.49194336 C-1.13718886 64.98257728 -1.13503339 60.47323097 -1.13037109 55.96386719 C-1.1246738 50.16951423 -1.12795269 44.37520758 -1.13394356 38.58085632 C-1.13754859 34.14237109 -1.13641085 29.70389693 -1.13381577 25.26541138 C-1.13314634 23.12826533 -1.13397547 20.99111829 -1.13629532 18.85397339 C-1.1388209 15.87267374 -1.13498259 12.8914502 -1.12939453 9.91015625 C-1.13141876 9.01765167 -1.13344299 8.12514709 -1.13552856 7.20559692 C-1.11426232 1.11426232 -1.11426232 1.11426232 0 0 Z " fill="#C1C0BF" transform="translate(440,89)"/>
<path d="M0 0 C1.65 0.33 3.3 0.66 5 1 C5 24.76 5 48.52 5 73 C2.525 73.495 2.525 73.495 0 74 C-1.89122114 72.10877886 -1.12782618 68.80408428 -1.12939453 66.29296875 C-1.13114685 65.59217194 -1.13289917 64.89137512 -1.13470459 64.16934204 C-1.13912266 61.84203651 -1.13618529 59.51480636 -1.1328125 57.1875 C-1.13348555 55.57706691 -1.13445559 53.96663391 -1.13571167 52.35620117 C-1.13718858 48.97671545 -1.13503431 45.5972561 -1.13037109 42.21777344 C-1.1246738 37.87623495 -1.12795285 33.53475827 -1.13394356 29.19322205 C-1.13754936 25.86649099 -1.1364105 22.5397747 -1.13381577 19.21304321 C-1.13314655 17.61178582 -1.13397474 16.0105271 -1.13629532 14.40927124 C-1.13882216 12.17515489 -1.13498085 9.94114 -1.12939453 7.70703125 C-1.12859894 6.4331958 -1.12780334 5.15936035 -1.12698364 3.84692383 C-1 1 -1 1 0 0 Z " fill="#2B2F35" transform="translate(326,101)"/>
<path d="M0 0 C0.83587646 -0.00095673 1.67175293 -0.00191345 2.53295898 -0.00289917 C4.30159582 -0.00358018 6.07023515 -0.00173141 7.83886719 0.00244141 C10.55148921 0.00779079 13.26394565 0.00249375 15.9765625 -0.00390625 C17.6927087 -0.00324545 19.4088548 -0.00196426 21.125 0 C22.3469104 -0.00303635 22.3469104 -0.00303635 23.59350586 -0.00613403 C29.33258072 0.01785286 29.33258072 0.01785286 31.5625 1.1328125 C31.2325 2.7828125 30.9025 4.4328125 30.5625 6.1328125 C24.38303263 7.60678679 18.10160397 7.35626304 11.78808594 7.37304688 C9.56928435 7.38278273 7.35139837 7.41385714 5.1328125 7.4453125 C3.71354712 7.4518409 2.29427518 7.45709201 0.875 7.4609375 C-1.04892578 7.47495605 -1.04892578 7.47495605 -3.01171875 7.48925781 C-6.63284944 7.1124868 -8.51858551 6.24665354 -11.4375 4.1328125 C-11.1075 3.1428125 -10.7775 2.1528125 -10.4375 1.1328125 C-7.17636087 -0.49775707 -3.58270683 -0.00890273 0 0 Z " fill="#C5C6C4" transform="translate(558.4375,180.8671875)"/>
<path d="M0 0 C5.23274388 -0.02467917 10.46545403 -0.04285003 15.69824219 -0.05493164 C17.47917267 -0.05996711 19.260099 -0.06679581 21.04101562 -0.07543945 C23.59766665 -0.08753942 26.15426312 -0.09323609 28.7109375 -0.09765625 C29.50994476 -0.10281754 30.30895203 -0.10797882 31.13217163 -0.11329651 C36.77225659 -0.11387171 36.77225659 -0.11387171 39 1 C38.125 4.875 38.125 4.875 37 6 C34.35711643 6.1009825 31.74093041 6.13970742 29.09765625 6.1328125 C28.30475693 6.13376923 27.5118576 6.13472595 26.69493103 6.13571167 C25.0144747 6.13639351 23.33401575 6.13453896 21.65356445 6.13037109 C19.07692555 6.1250299 16.50046152 6.13031228 13.92382812 6.13671875 C12.29427045 6.13605783 10.66471288 6.13477638 9.03515625 6.1328125 C8.26115982 6.13483673 7.48716339 6.13686096 6.68971252 6.13894653 C1.22991166 6.11495583 1.22991166 6.11495583 -1 5 C-0.67 3.35 -0.34 1.7 0 0 Z " fill="#C4C3C2" transform="translate(629,155)"/>
<path d="M0 0 C0.72015289 -0.00570007 1.44030579 -0.01140015 2.18228149 -0.01727295 C3.70711803 -0.02672335 5.23197499 -0.03325709 6.75683594 -0.03710938 C9.08565062 -0.04680873 11.41358026 -0.0778274 13.7421875 -0.109375 C15.22395309 -0.11590587 16.705725 -0.12115601 18.1875 -0.125 C18.88241547 -0.1373468 19.57733093 -0.1496936 20.29330444 -0.16241455 C24.39769612 -0.14357808 26.74187495 0.3147177 29.7265625 3.203125 C27.31868874 5.61099876 22.14691046 5.19376769 18.91894531 5.265625 C15.72927409 5.265625 12.54100502 5.24113981 9.3515625 5.203125 C7.17713156 5.17775241 5.00264475 5.15667312 2.828125 5.140625 C1.87244629 5.12902344 0.91676758 5.11742187 -0.06787109 5.10546875 C-2.2487259 4.95336786 -2.2487259 4.95336786 -3.2734375 6.203125 C-4.93960865 6.24376332 -6.60731845 6.245846 -8.2734375 6.203125 C-8.6034375 4.553125 -8.9334375 2.903125 -9.2734375 1.203125 C-6.30200958 -0.28258896 -3.25952856 0.01981876 0 0 Z " fill="#30343C" transform="translate(334.2734375,180.796875)"/>
<path d="M0 0 C0.495 0.99 0.495 0.99 1 2 C-1.44480054 4.9594954 -3.25588557 5.44572131 -7 6 C-8.98438396 6.07869838 -10.97111348 6.10784044 -12.95703125 6.09765625 C-14.06884766 6.09443359 -15.18066406 6.09121094 -16.32617188 6.08789062 C-17.47666016 6.07951172 -18.62714844 6.07113281 -19.8125 6.0625 C-21.56723633 6.05573242 -21.56723633 6.05573242 -23.35742188 6.04882812 C-26.23833358 6.0370693 -29.11914044 6.02063426 -32 6 C-32 6.66 -32 7.32 -32 8 C-22.43 7.67 -12.86 7.34 -3 7 C-2.67 7.66 -2.34 8.32 -2 9 C-5.35735137 10.11911712 -7.88205386 10.11365586 -11.41796875 10.09765625 C-12.67158203 10.09443359 -13.92519531 10.09121094 -15.21679688 10.08789062 C-16.52712891 10.07951172 -17.83746094 10.07113281 -19.1875 10.0625 C-20.52278481 10.05748317 -21.85807141 10.05292059 -23.19335938 10.04882812 C-26.46228473 10.03702695 -29.73111991 10.02056297 -33 10 C-33.38218767 8.34385343 -33.71395102 6.67542976 -34 5 C-32.29285916 3.29285916 -30.04812055 3.83040643 -27.71484375 3.7890625 C-26.62623047 3.76070312 -25.53761719 3.73234375 -24.41601562 3.703125 C-22.12449925 3.65165916 -19.83281281 3.6072132 -17.54101562 3.5703125 C-11.01823773 3.38646439 -5.94994027 2.72371807 0 0 Z " fill="#23262C" transform="translate(144,135)"/>
<path d="M0 0 C-0.34021964 3.17538332 -1.02466604 4.02276865 -3.4375 6.25 C-6 8 -6 8 -8 8 C-8 8.66 -8 9.32 -8 10 C-8.99 10.33 -9.98 10.66 -11 11 C-12.02611949 12.65071396 -13.02308143 14.31970006 -14 16 C-15.33333333 17.33333333 -16.66666667 18.66666667 -18 20 C-18.33 20.99 -18.66 21.98 -19 23 C-19.66 23 -20.32 23 -21 23 C-21.33 25.64 -21.66 28.28 -22 31 C-23.32 31.33 -24.64 31.66 -26 32 C-24.35510731 26.75034249 -22.51157092 21.90897952 -20 17 C-19.88011719 16.36578125 -19.76023438 15.7315625 -19.63671875 15.078125 C-17.69985421 8.75657937 -10.14134835 4.12975638 -4.76171875 0.8125 C-3 0 -3 0 0 0 Z " fill="#31353E" transform="translate(218,94)"/>
<path d="M0 0 C0.99 0.33 1.98 0.66 3 1 C3 1.66 3 2.32 3 3 C3.99 3.33 4.98 3.66 6 4 C7.28125 6.14453125 7.28125 6.14453125 8.5 8.8125 C9.71615426 11.45139883 10.82102438 13.7670685 12.59375 16.07421875 C14 18 14 18 14.43359375 20.08984375 C14.84311637 22.16978574 14.84311637 22.16978574 16.84765625 23.37890625 C17.94400391 23.96478516 17.94400391 23.96478516 19.0625 24.5625 C21.28515625 25.75390625 21.28515625 25.75390625 23 27 C23 27.99 23 28.98 23 30 C22.34 30 21.68 30 21 30 C21 29.34 21 28.68 21 28 C20.41992188 27.896875 19.83984375 27.79375 19.2421875 27.6875 C11.81074669 25.40887006 6.59346495 17.47739223 3 11 C2.33073134 9.33437649 1.663874 7.66778102 1 6 C0.34 5.01 -0.32 4.02 -1 3 C-0.67 2.01 -0.34 1.02 0 0 Z " fill="#30353F" transform="translate(192,149)"/>
<path d="M0 0 C3.387199 1.4388102 5.3594104 3.22119499 7.75 6 C8.67039063 7.051875 8.67039063 7.051875 9.609375 8.125 C11 10 11 10 11 12 C10.01 11.67 9.02 11.34 8 11 C8 11.7425 8 12.485 8 13.25 C8 15.5 8 17.75 8 20 C6 17 6 17 4.95703125 14.87890625 C2.12319544 9.14353207 -0.16612773 6.64175348 -6 4 C-6.66 3.67 -7.32 3.34 -8 3 C-8 2.34 -8 1.68 -8 1 C-3.52040582 2.14185734 0.14522751 3.43015167 4 6 C4 5.34 4 4.68 4 4 C2.68 3.67 1.36 3.34 0 3 C0 2.01 0 1.02 0 0 Z " fill="#282B32" transform="translate(147,93)"/>
<path d="M0 0 C0.99 0.66 1.98 1.32 3 2 C3 2.66 3 3.32 3 4 C3.66 4.33 4.32 4.66 5 5 C4.83371094 5.69480469 4.66742188 6.38960937 4.49609375 7.10546875 C3.95630046 10.25497135 3.97457573 13.12046668 4.0625 16.3125 C4.11674477 21.6164334 3.58326907 25.95332985 2 31 C0.68 30.67 -0.64 30.34 -2 30 C-1.34 28.35 -0.68 26.7 0 25 C0.66 25 1.32 25 2 25 C1.835 23.9275 1.67 22.855 1.5 21.75 C1.04369803 18.32773526 0.93882499 15.13173768 1.125 11.6875 C1.09443333 8.79197552 1.09443333 8.79197552 -0.0625 5.3125 C-1 2 -1 2 0 0 Z " fill="#2F343D" transform="translate(397,123)"/>
<path d="M0 0 C5.55203689 5.55203689 6.00410315 15.43596534 6.1875 22.875 C6.05834621 34.94165379 6.05834621 34.94165379 2 39 C2.0721875 38.34515625 2.144375 37.6903125 2.21875 37.015625 C3.41279727 25.27416018 4.46283282 12.92566564 -1 2 C-0.67 1.34 -0.34 0.68 0 0 Z " fill="#21262D" transform="translate(282,116)"/>
<path d="M0 0 C0.66 0 1.32 0 2 0 C2 6.93 2 13.86 2 21 C1.01 20.67 0.02 20.34 -1 20 C-3.00775194 4.51162791 -3.00775194 4.51162791 0 0 Z " fill="#2E333D" transform="translate(192,127)"/>
<path d="M0 0 C1.32 0.66 2.64 1.32 4 2 C0.18793688 3.7697771 -2.76775622 4.23827942 -6.95703125 4.1953125 C-8.06884766 4.18886719 -9.18066406 4.18242187 -10.32617188 4.17578125 C-11.47666016 4.15902344 -12.62714844 4.14226562 -13.8125 4.125 C-14.98232422 4.11597656 -16.15214844 4.10695312 -17.35742188 4.09765625 C-20.23849053 4.07413732 -23.11913989 4.04126852 -26 4 C-26 3.34 -26 2.68 -26 2 C-24.8718689 1.96241577 -24.8718689 1.96241577 -23.72094727 1.92407227 C-20.33460804 1.80849486 -16.94857387 1.68559655 -13.5625 1.5625 C-11.78649414 1.50352539 -11.78649414 1.50352539 -9.97460938 1.44335938 C-8.84990234 1.40146484 -7.72519531 1.35957031 -6.56640625 1.31640625 C-5.52427979 1.27974854 -4.48215332 1.24309082 -3.40844727 1.20532227 C-1.0500174 1.26484659 -1.0500174 1.26484659 0 0 Z " fill="#31353F" transform="translate(138,139)"/>
<path d="M0 0 C0.33 0.66 0.66 1.32 1 2 C-3.48389038 11.21235661 -9.49814585 18.30474249 -18 24 C-18.66 24 -19.32 24 -20 24 C-18.41562654 19.24687961 -14.15196816 16.86397612 -10.25 13.9375 C-7.98991683 11.99131727 -7.20226805 10.66216496 -6 8 C-5 7 -4 6 -3 5 C-1.96642853 3.35394174 -0.95939668 1.69036558 0 0 Z " fill="#22252A" transform="translate(283,156)"/>
<path d="M0 0 C0.33 0.66 0.66 1.32 1 2 C-9.55873702 16.44204152 -9.55873702 16.44204152 -18 19 C-16.65709609 14.97128826 -14.48692446 14.32461631 -11 12 C-9.61767557 10.37373596 -8.28062485 8.7074998 -7 7 C-4.875 4.6875 -4.875 4.6875 -3 3 C-2.34 3 -1.68 3 -1 3 C-0.67 2.01 -0.34 1.02 0 0 Z " fill="#272A30" transform="translate(395,162)"/>
<path d="M0 0 C3.11773437 4.67660155 2.47683424 9.51986151 2 15 C1.24100501 17.88242606 0.25516248 20.28048129 -1 23 C-1.66 22.34 -2.32 21.68 -3 21 C-2.79296875 19.01171875 -2.79296875 19.01171875 -2.1875 16.6875 C-1.98898438 15.88699219 -1.79046875 15.08648437 -1.5859375 14.26171875 C-1.39257812 13.51535156 -1.19921875 12.76898438 -1 12 C-0.62033354 10.34327363 -0.26239024 8.67929755 0 7 C-0.33 6.67 -0.66 6.34 -1 6 C-1.125 3.5 -1.125 3.5 -1 1 C-0.67 0.67 -0.34 0.34 0 0 Z " fill="#252A2F" transform="translate(159,108)"/>
<path d="M0 0 C0.66 0.66 1.32 1.32 2 2 C1 3 1 3 -2.14282227 3.11352539 C-3.53402697 3.11336633 -4.92523761 3.10767506 -6.31640625 3.09765625 C-7.04746078 3.0962413 -7.77851532 3.09482635 -8.53172302 3.09336853 C-10.87535632 3.08775408 -13.21889539 3.07519922 -15.5625 3.0625 C-17.14778508 3.05748686 -18.73307166 3.05292363 -20.31835938 3.04882812 C-24.2122761 3.03777997 -28.10612205 3.02050572 -32 3 C-31.67 2.34 -31.34 1.68 -31 1 C-29.9644397 1.00785522 -29.9644397 1.00785522 -28.90795898 1.01586914 C-25.75114874 1.03677867 -22.59435314 1.04970442 -19.4375 1.0625 C-18.35146484 1.07087891 -17.26542969 1.07925781 -16.14648438 1.08789062 C-9.46777331 1.12701908 -9.46777331 1.12701908 -2.84765625 0.37109375 C-1.90792969 0.24863281 -0.96820313 0.12617188 0 0 Z " fill="#25292E" transform="translate(363,184)"/>
<path d="M0 0 C0 0.66 0 1.32 0 2 C-1.6430546 3.03833971 -3.31531399 4.03066476 -5 5 C-6.75216685 6.30296066 -8.48144422 7.63722019 -10.1875 9 C-11.04730469 9.680625 -11.90710938 10.36125 -12.79296875 11.0625 C-15.18008922 12.98918391 -15.18008922 12.98918391 -17 16 C-17.66 16 -18.32 16 -19 16 C-16.11545586 9.60079285 -7.5963389 0 0 0 Z " fill="#27292E" transform="translate(217,94)"/>
<path d="M0 0 C0.66 0.33 1.32 0.66 2 1 C1.5020163 4.73487777 1.12508244 6.81237635 -1 10 C-1.66 10 -2.32 10 -3 10 C-3.4021875 11.2065625 -3.4021875 11.2065625 -3.8125 12.4375 C-4.4003125 13.7059375 -4.4003125 13.7059375 -5 15 C-5.99 15.33 -6.98 15.66 -8 16 C-6.55049545 12.2089881 -4.84827434 8.6125362 -3 5 C-2.34 5 -1.68 5 -1 5 C-0.67 3.35 -0.34 1.7 0 0 Z " fill="#31353F" transform="translate(280,154)"/>
<path d="M0 0 C3.10302911 5.3107178 2.44557894 11.21513159 1.5 17.125 C1.335 17.74375 1.17 18.3625 1 19 C0.01 19.33 -0.98 19.66 -2 20 C-1.835 19.38125 -1.67 18.7625 -1.5 18.125 C-0.79862867 13.74142917 -0.93518639 9.42893007 -1 5 C-1 1 -1 1 0 0 Z " fill="#31353F" transform="translate(284,130)"/>
<path d="M0 0 C0.33 0 0.66 0 1 0 C1 11.55 1 23.1 1 35 C-0.98 35.495 -0.98 35.495 -3 36 C-2.34 35.01 -1.68 34.02 -1 33 C-0.76006345 30.46413152 -0.62746781 28.02783969 -0.5859375 25.48828125 C-0.56657135 24.76005661 -0.5472052 24.03183197 -0.5272522 23.28153992 C-0.46753624 20.95864525 -0.42110383 18.63570081 -0.375 16.3125 C-0.33681279 14.73630668 -0.29776062 13.16013405 -0.2578125 11.58398438 C-0.16184152 7.72282465 -0.07778151 3.86156724 0 0 Z " fill="#2B2E34" transform="translate(103,151)"/>
<path d="M0 0 C1.32 0.33 2.64 0.66 4 1 C4.12375 1.515625 4.2475 2.03125 4.375 2.5625 C4.89741816 4.59993083 5.50157125 6.61617404 6.125 8.625 C7 12 7 12 6 14 C5.34 14 4.68 14 4 14 C3.71125 12.9275 3.4225 11.855 3.125 10.75 C2.17134117 7.18205 2.17134117 7.18205 0.875 4.75 C0 3 0 3 0 0 Z " fill="#31353F" transform="translate(278,115)"/>
<path d="M0 0 C0.69222656 0.14179688 1.38445312 0.28359375 2.09765625 0.4296875 C5.59439075 1.11679818 8.87488508 1.13217546 12.4375 1.125 C13.71496094 1.12757813 14.99242187 1.13015625 16.30859375 1.1328125 C19.6392337 1.01297995 22.73364456 0.63610631 26 0 C25.67 0.66 25.34 1.32 25 2 C20.68219317 3.43926894 16.52237315 3.18431523 12 3.1875 C10.62714844 3.20586914 10.62714844 3.20586914 9.2265625 3.22460938 C7.90785156 3.22750977 7.90785156 3.22750977 6.5625 3.23046875 C5.75941406 3.23457764 4.95632812 3.23868652 4.12890625 3.24291992 C2 3 2 3 -1 1 C-0.67 0.67 -0.34 0.34 0 0 Z " fill="#25282B" transform="translate(226,184)"/>
<path d="M0 0 C6.64155871 0.83019484 12.6440902 3.91810524 17 9 C16.01 9.33 15.02 9.66 14 10 C14 9.34 14 8.68 14 8 C13.21625 7.690625 12.4325 7.38125 11.625 7.0625 C9 6 9 6 7 5 C7 4.34 7 3.68 7 3 C4.36 2.67 1.72 2.34 -1 2 C-0.67 1.34 -0.34 0.68 0 0 Z " fill="#272B2F" transform="translate(252,91)"/>
<path d="M0 0 C0.33 0.66 0.66 1.32 1 2 C-0.61773571 6.59777518 -2.12217816 9.87272432 -6 13 C-6.66 13 -7.32 13 -8 13 C-8.33 13.66 -8.66 14.32 -9 15 C-9 14.01 -9 13.02 -9 12 C-8.01 11.67 -7.02 11.34 -6 11 C-5.61907912 9.67947428 -5.29225744 8.34293502 -5 7 C-3.80859375 5.078125 -3.80859375 5.078125 -2.4375 3.25 C-1.98246094 2.63640625 -1.52742188 2.0228125 -1.05859375 1.390625 C-0.70925781 0.93171875 -0.35992187 0.4728125 0 0 Z " fill="#313541" transform="translate(396,156)"/>
<path d="M0 0 C0.66 -0.33 1.32 -0.66 2 -1 C2.61875 -0.319375 2.61875 -0.319375 3.25 0.375 C5.06408095 2.05950374 6.75285627 2.99265971 9 4 C8.67 4.99 8.34 5.98 8 7 C7.443125 6.66226563 6.88625 6.32453125 6.3125 5.9765625 C1.23234401 3.00741727 -3.22985841 1.15402832 -9 0 C-5.35442349 -2.43038434 -3.8552593 -1.72472127 0 0 Z " fill="#272B2F" transform="translate(370,96)"/>
<path d="M0 0 C2.64 0 5.28 0 8 0 C8 0.66 8 1.32 8 2 C4.91111478 4.05925681 4.29064073 4.2390374 0.8125 4.125 C-1.0746875 4.063125 -1.0746875 4.063125 -3 4 C-3 3.01 -3 2.02 -3 1 C-2.34 1.33 -1.68 1.66 -1 2 C-0.67 1.34 -0.34 0.68 0 0 Z " fill="#32363E" transform="translate(232,181)"/>
<path d="M0 0 C0.33 0 0.66 0 1 0 C1.061875 0.763125 1.12375 1.52625 1.1875 2.3125 C2.2547656 5.84268623 3.8475042 6.30250226 7 8 C7 8.66 7 9.32 7 10 C5 10 5 10 3.375 8.5 C2.92125 8.005 2.4675 7.51 2 7 C2 7.99 2 8.98 2 10 C1.34 10 0.68 10 0 10 C-0.19412181 8.52168779 -0.38012131 7.04230684 -0.5625 5.5625 C-0.66691406 4.73878906 -0.77132812 3.91507813 -0.87890625 3.06640625 C-0.91886719 2.38449219 -0.95882812 1.70257813 -1 1 C-0.67 0.67 -0.34 0.34 0 0 Z " fill="#272B30" transform="translate(190,142)"/>
<path d="M0 0 C0.33 0.66 0.66 1.32 1 2 C4.96 2 8.92 2 13 2 C12.67 2.66 12.34 3.32 12 4 C8.04 4 4.08 4 0 4 C-0.33 3.34 -0.66 2.68 -1 2 C-0.67 1.34 -0.34 0.68 0 0 Z " fill="#B9B9B6" transform="translate(452,141)"/>
<path d="M0 0 C0.99 0.33 1.98 0.66 3 1 C-4.11389522 9.81548975 -4.11389522 9.81548975 -9 11 C-7.83225685 7.49677054 -6.89892704 6.97968337 -3.9375 4.9375 C-1.75957185 3.47752704 -1.75957185 3.47752704 0 2 C0 1.34 0 0.68 0 0 Z " fill="#222629" transform="translate(154,131)"/>
<path d="M0 0 C1.32 0.33 2.64 0.66 4 1 C3.34 1 2.68 1 2 1 C1.79375 1.598125 1.5875 2.19625 1.375 2.8125 C-0.50926082 5.81018767 -2.81132084 6.61361776 -6 8 C-5.1875 6.0625 -5.1875 6.0625 -4 4 C-3.01 3.67 -2.02 3.34 -1 3 C-0.67 2.01 -0.34 1.02 0 0 Z " fill="#32363F" transform="translate(383,171)"/>
<path d="M0 0 C0.66 0 1.32 0 2 0 C2.84069415 1.60032137 3.67231505 3.20541171 4.5 4.8125 C4.9640625 5.70582031 5.428125 6.59914062 5.90625 7.51953125 C7 10 7 10 7 13 C0 4.79310345 0 4.79310345 0 0 Z " fill="#24272D" transform="translate(196,153)"/>
<path d="M0 0 C2.52055505 3.78083258 2.46702178 7.61718019 2 12 C1 14.5 1 14.5 0 16 C-0.91397824 10.31302429 -0.91397824 5.68697571 0 0 Z " fill="#1C1F26" transform="translate(189,127)"/>
<path d="M0 0 C3.85309632 1.46151929 5.24018776 3.31277435 7 7 C7.6875 10.3125 7.6875 10.3125 8 13 C5.92980505 10.92980505 4.83063863 9.06171163 3.4375 6.5 C3.00308594 5.7059375 2.56867188 4.911875 2.12109375 4.09375 C1.39562966 2.73887631 0.68731083 1.37462165 0 0 Z " fill="#20272B" transform="translate(386,109)"/>
<path d="M0 0 C3 0 3 0 4.75 1.1875 C6 3 6 3 5.6875 5.6875 C5.460625 6.450625 5.23375 7.21375 5 8 C2.20127563 5.47211993 0.54226981 3.79588866 0 0 Z " fill="#32353E" transform="translate(390,111)"/>
<path d="M0 0 C-3.36423277 2.96052484 -6.69159287 3.92289822 -11 5 C-10 2 -10 2 -6.625 0.25 C-3 -1 -3 -1 0 0 Z " fill="#21272E" transform="translate(377,181)"/>
<path d="M0 0 C-3.66291938 2.47785723 -6.6109185 3.48964169 -11 4 C-11 3.34 -11 2.68 -11 2 C-9.54494642 1.47007308 -8.08581873 0.9513211 -6.625 0.4375 C-5.81289063 0.14746094 -5.00078125 -0.14257812 -4.1640625 -0.44140625 C-2 -1 -2 -1 0 0 Z " fill="#2A2D31" transform="translate(371,179)"/>
<path d="M0 0 C0.66 0.66 1.32 1.32 2 2 C0.26440562 5.057952 -1.38472619 7.63379989 -4 10 C-4.33 9.34 -4.66 8.68 -5 8 C-4.00390625 6.0546875 -4.00390625 6.0546875 -2.5625 3.875 C-2.08941406 3.15054688 -1.61632812 2.42609375 -1.12890625 1.6796875 C-0.75636719 1.12539062 -0.38382813 0.57109375 0 0 Z " fill="#20242A" transform="translate(197,110)"/>
<path d="M0 0 C4.455 0.99 4.455 0.99 9 2 C9 3.32 9 4.64 9 6 C6.525 5.01 6.525 5.01 4 4 C4 3.34 4 2.68 4 2 C2.68 2 1.36 2 0 2 C0 1.34 0 0.68 0 0 Z " fill="#25262D" transform="translate(222,178)"/>
<path d="M0 0 C0.66 0.33 1.32 0.66 2 1 C0.61122646 4.35620271 -0.91677965 6.07298728 -4 8 C-4.66 8 -5.32 8 -6 8 C-4.768606 4.30581799 -2.79208646 2.64890254 0 0 Z " fill="#272B31" transform="translate(269,172)"/>
<path d="M0 0 C0.99 0.33 1.98 0.66 3 1 C1.71283353 2.00578589 0.42011342 3.00446798 -0.875 4 C-1.95394531 4.8353125 -1.95394531 4.8353125 -3.0546875 5.6875 C-5 7 -5 7 -7 7 C-5.65117186 2.95351557 -3.65173931 2.04497401 0 0 Z " fill="#202429" transform="translate(384,174)"/>
<path d="M0 0 C2 2 2 2 2.1875 5 C2 8 2 8 1 10 C0.34 10 -0.32 10 -1 10 C-0.67 6.7 -0.34 3.4 0 0 Z " fill="#262930" transform="translate(155,114)"/>
<path d="M0 0 C0.66 0 1.32 0 2 0 C1.125 6.75 1.125 6.75 0 9 C-0.66 9 -1.32 9 -2 9 C-1.34 6.03 -0.68 3.06 0 0 Z " fill="#25292D" transform="translate(281,144)"/>
<path d="M0 0 C2 1.625 2 1.625 4 4 C4.25 7.25 4.25 7.25 4 10 C3.34 10 2.68 10 2 10 C1.34 6.7 0.68 3.4 0 0 Z " fill="#24282D" transform="translate(278,120)"/>
<path d="M0 0 C0.556875 0.226875 1.11375 0.45375 1.6875 0.6875 C-1.37367568 3.31136487 -2.04423127 3.6875 -6.3125 3.6875 C-6.6425 4.3475 -6.9725 5.0075 -7.3125 5.6875 C-7.3125 4.6975 -7.3125 3.7075 -7.3125 2.6875 C-3.28618421 -0.44407895 -3.28618421 -0.44407895 0 0 Z " fill="#26292D" transform="translate(380.3125,173.3125)"/>
<path d="M0 0 C0.53625 0.226875 1.0725 0.45375 1.625 0.6875 C-1.7090947 2.87847652 -4.41679141 4.12204163 -8.375 4.6875 C-8.375 4.0275 -8.375 3.3675 -8.375 2.6875 C-2.95961538 -0.38942308 -2.95961538 -0.38942308 0 0 Z " fill="#21242A" transform="translate(261.375,180.3125)"/>
<path d="M0 0 C2.31 1.65 4.62 3.3 7 5 C6.67 5.66 6.34 6.32 6 7 C5.34 7 4.68 7 4 7 C4 6.34 4 5.68 4 5 C3.01 4.67 2.02 4.34 1 4 C0.67 2.68 0.34 1.36 0 0 Z " fill="#22272B" transform="translate(205,167)"/>
<path d="M0 0 C0.66 0 1.32 0 2 0 C1.67 2.31 1.34 4.62 1 7 C0.34 7 -0.32 7 -1 7 C-1.33 7.66 -1.66 8.32 -2 9 C-2.33 8.34 -2.66 7.68 -3 7 C-2.06421005 4.64018187 -1.06652192 2.30368736 0 0 Z " fill="#CCCBCA" transform="translate(614,160)"/>
<path d="M0 0 C0.99 0.33 1.98 0.66 3 1 C2.67 2.32 2.34 3.64 2 5 C0.68 5.33 -0.64 5.66 -2 6 C-1.49396008 3.83125748 -1.00016187 2.00032373 0 0 Z " fill="#292B32" transform="translate(153,125)"/>
<path d="M0 0 C0.66 0.33 1.32 0.66 2 1 C0.02 5.455 0.02 5.455 -2 10 C-3.09658936 6.71023192 -2.79953138 5.28696233 -2 2 C-1.34 2 -0.68 2 0 2 C0 1.34 0 0.68 0 0 Z " fill="#1B1D20" transform="translate(198,118)"/>
<path d="M0 0 C0.66 0.66 1.32 1.32 2 2 C1.67 2.66 1.34 3.32 1 4 C1.66 4 2.32 4 3 4 C2 6 2 6 -1 8 C-1.04241723 5.66705225 -1.04092937 3.33297433 -1 1 C-0.67 0.67 -0.34 0.34 0 0 Z " fill="#282D34" transform="translate(99,89)"/>
</svg>
